<svg width="129" height="37" viewBox="0 0 129 37" fill="none" xmlns="http://www.w3.org/2000/svg">
<g id="Group">
<path id="Vector" d="M110.914 36.6922H18.086C8.15315 36.6922 0.0268555 28.5659 0.0268555 18.633C0.0268555 8.70015 8.15315 0.573853 18.086 0.573853H110.914C120.847 0.573853 128.973 8.70015 128.973 18.633C128.973 28.5659 120.847 36.6922 110.914 36.6922Z" fill="#E14B33"/>
<path id="Vector_2" d="M40.121 0.573853H39.3083V36.6922H40.121V0.573853Z" fill="#C2412D"/>
<g id="Group_2">
<path id="Vector_3" d="M61.948 21.165C61.6659 21.5612 61.2831 21.8634 60.7861 22.0582C60.2892 22.253 59.7049 22.3537 59.0467 22.3537C58.3751 22.3537 57.7841 22.1992 57.2603 21.8836C56.7364 21.5679 56.3402 21.1247 56.0581 20.5404C55.776 19.9628 55.6283 19.2912 55.6216 18.5256V17.807C55.6216 16.5713 55.9104 15.6109 56.4879 14.9259C57.0655 14.2475 57.8781 13.905 58.9258 13.905C59.7855 13.905 60.4772 14.1267 60.9943 14.5632C61.5182 14.9997 61.8338 15.6243 61.9547 16.4302H60.8735C60.672 15.3422 60.0205 14.7915 58.9325 14.7915C58.2072 14.7915 57.6565 15.0467 57.2804 15.5572C56.9043 16.0676 56.7163 16.8063 56.7163 17.7734V18.445C56.7163 19.3651 56.9245 20.1038 57.3476 20.6478C57.7707 21.1918 58.3415 21.4672 59.0601 21.4672C59.4698 21.4672 59.8191 21.4202 60.128 21.3329C60.4369 21.2456 60.6854 21.0911 60.8869 20.8762V19.036H58.9863V18.1495H61.948V21.165Z" fill="white"/>
<path id="Vector_4" d="M63.3114 19.1367C63.3114 18.539 63.4256 18.0017 63.6606 17.5249C63.8957 17.048 64.2248 16.6787 64.6412 16.4167C65.0575 16.1548 65.5411 16.0272 66.0784 16.0272C66.9112 16.0272 67.5827 16.316 68.0932 16.8936C68.6036 17.4711 68.8655 18.2368 68.8655 19.1904V19.2643C68.8655 19.862 68.7513 20.3926 68.523 20.8627C68.2946 21.3328 67.9723 21.7022 67.5492 21.9641C67.1261 22.226 66.6358 22.3604 66.0918 22.3604C65.2657 22.3604 64.5941 22.0716 64.077 21.494C63.5666 20.9164 63.3047 20.1575 63.3047 19.2106L63.3114 19.1367ZM64.3658 19.2576C64.3658 19.9359 64.5203 20.4799 64.8359 20.8896C65.1516 21.2992 65.568 21.5074 66.0985 21.5074C66.6291 21.5074 67.0522 21.2992 67.3611 20.8829C67.6701 20.4665 67.8312 19.8822 67.8312 19.1367C67.8312 18.4651 67.6701 17.9278 67.3544 17.5114C67.0388 17.0951 66.6156 16.8869 66.0851 16.8869C65.568 16.8869 65.1516 17.0951 64.8359 17.5047C64.5203 17.9077 64.3658 18.4987 64.3658 19.2576Z" fill="white"/>
<path id="Vector_5" d="M69.9064 19.1367C69.9064 18.539 70.0205 18.0017 70.2556 17.5249C70.4907 17.048 70.8197 16.6787 71.2361 16.4167C71.6525 16.1548 72.1361 16.0272 72.6733 16.0272C73.5061 16.0272 74.1777 16.316 74.6881 16.8936C75.1985 17.4711 75.4605 18.2368 75.4605 19.1904V19.2643C75.4605 19.862 75.3463 20.3926 75.1179 20.8627C74.8896 21.3328 74.5672 21.7022 74.1441 21.9641C73.721 22.226 73.2308 22.3604 72.6868 22.3604C71.8607 22.3604 71.1891 22.0716 70.672 21.494C70.1549 20.9164 69.8997 20.1575 69.8997 19.2106L69.9064 19.1367ZM70.9541 19.2576C70.9541 19.9359 71.1085 20.4799 71.4242 20.8896C71.7398 21.2992 72.1562 21.5074 72.6868 21.5074C73.2173 21.5074 73.6404 21.2992 73.9494 20.8829C74.2583 20.4665 74.4195 19.8822 74.4195 19.1367C74.4195 18.4651 74.2583 17.9278 73.9427 17.5114C73.627 17.0951 73.2039 16.8869 72.6733 16.8869C72.1562 16.8869 71.7398 17.0951 71.4242 17.5047C71.1152 17.9077 70.9541 18.4987 70.9541 19.2576Z" fill="white"/>
<path id="Vector_6" d="M76.5283 19.1434C76.5283 18.1898 76.7499 17.4376 77.1865 16.8734C77.6297 16.3093 78.2073 16.0272 78.9393 16.0272C79.6848 16.0272 80.2624 16.2891 80.6855 16.8197L80.7392 16.1414H81.6929V22.0984C81.6929 22.8909 81.4578 23.5088 80.9877 23.9655C80.5176 24.4222 79.893 24.6505 79.1005 24.6505C78.6573 24.6505 78.2275 24.5565 77.8111 24.3684C77.388 24.1804 77.0656 23.9252 76.844 23.5961L77.388 22.9715C77.8379 23.5222 78.3819 23.7976 79.0267 23.7976C79.5371 23.7976 79.9333 23.6565 80.2154 23.3678C80.4974 23.079 80.6385 22.676 80.6385 22.1589V21.635C80.2221 22.1186 79.6512 22.3604 78.9259 22.3604C78.214 22.3604 77.6297 22.0716 77.1932 21.494C76.7499 20.9164 76.5283 20.1374 76.5283 19.1434ZM77.576 19.2576C77.576 19.9493 77.717 20.4866 77.9991 20.8829C78.2812 21.2791 78.6774 21.4739 79.1878 21.4739C79.846 21.4739 80.3296 21.1716 80.6385 20.5739V17.7868C80.3161 17.2025 79.8393 16.9137 79.2013 16.9137C78.6909 16.9137 78.2946 17.1085 78.0125 17.5047C77.717 17.901 77.576 18.4853 77.576 19.2576Z" fill="white"/>
<path id="Vector_7" d="M84.3928 22.2462H83.3518V13.5759H84.3928V22.2462Z" fill="white"/>
<path id="Vector_8" d="M88.5969 22.3604C87.7709 22.3604 87.0926 22.0917 86.5754 21.5477C86.0583 21.0037 85.7964 20.2784 85.7964 19.365V19.1703C85.7964 18.5658 85.9106 18.0219 86.1456 17.545C86.374 17.0682 86.703 16.6988 87.1194 16.4302C87.5358 16.1615 87.9858 16.0272 88.4693 16.0272C89.2618 16.0272 89.8797 16.2891 90.3229 16.813C90.7662 17.3368 90.9811 18.0823 90.9811 19.0561V19.4926H86.8441C86.8575 20.0971 87.0321 20.5806 87.3746 20.95C87.7171 21.3194 88.1403 21.5074 88.6574 21.5074C89.0268 21.5074 89.3357 21.4336 89.5976 21.2791C89.8528 21.1313 90.0744 20.9299 90.2692 20.6814L90.9072 21.1784C90.3901 21.9641 89.6245 22.3604 88.5969 22.3604ZM88.4693 16.8801C88.0462 16.8801 87.697 17.0346 87.4082 17.3435C87.1194 17.6525 86.9448 18.0823 86.8777 18.633H89.9334V18.5524C89.8998 18.0219 89.7588 17.6122 89.5036 17.3167C89.2484 17.0212 88.9059 16.8801 88.4693 16.8801Z" fill="white"/>
</g>
<g id="Group_3">
<g id="Group_4">
<path id="Vector_9" d="M19.6643 12.2126C20.7523 12.226 21.7664 12.4947 22.6999 13.0454C23.3245 13.4013 23.6805 13.7707 23.8349 13.8781C23.1969 14.5094 22.5791 15.1273 21.9478 15.7452C21.4844 15.3422 20.9672 14.9728 20.074 14.8385C19.886 14.8117 19.7046 14.7982 19.5233 14.7982C17.7301 14.7982 16.2258 16.0944 15.8228 17.7935C15.7288 18.1763 15.7019 18.5659 15.7355 18.9554C15.8698 20.5336 16.9309 21.8298 18.3614 22.2932C18.7241 22.4074 19.1002 22.4611 19.483 22.4611C19.5703 22.4611 19.6576 22.4611 19.7516 22.4544C20.4232 22.4141 21.0545 22.2328 21.6254 21.8567C22.5858 21.2052 22.9014 20.1777 22.9014 19.9225C22.7201 19.9225 19.624 19.9225 19.4629 19.9225C19.4629 19.8352 19.4763 18.2301 19.483 17.4443L19.4897 17.3369C21.5045 17.3369 23.5126 17.3369 25.5274 17.3369C25.8497 19.2173 25.5609 21.2052 24.3856 22.7499C23.573 23.8177 22.4985 24.4893 21.209 24.8251C20.6381 24.9729 20.0606 25.0468 19.4763 25.0468C19.3487 25.0468 19.2278 25.04 19.1002 25.0333C17.8443 24.9595 16.6959 24.5632 15.6818 23.8177C14.3722 22.8574 13.5528 21.5679 13.2036 19.9829C13.076 19.4054 13.0357 18.8345 13.0827 18.2569C13.1767 16.8869 13.6536 15.6579 14.5334 14.59C15.4467 13.4752 16.6019 12.7431 17.9921 12.3939C18.3413 12.2999 18.6972 12.2462 19.0532 12.226C19.2614 12.226 19.4629 12.2126 19.6643 12.2126Z" fill="white"/>
</g>
<g id="Group_5">
<path id="Vector_10" d="M31.1352 15.1877V15.2482L31.1217 17.4309H33.291H33.3581V17.4913L33.3514 19.1166L33.3447 19.1837H33.2775H31.1083L31.0881 21.3597V21.4201H31.0277H29.3957H29.3353V21.3597L29.3554 19.1837H27.1795H27.1123V19.1166L27.1257 17.4913V17.4309H27.1929H29.3689L29.3823 15.2482V15.1877H29.4427H31.0747H31.1352Z" fill="white"/>
</g>
</g>
</g>
</svg>
